<?xml version="1.0" standalone="no"?>
<!DOCTYPE svg PUBLIC "-//W3C//DTD SVG 20010904//EN"
 "http://www.w3.org/TR/2001/REC-SVG-20010904/DTD/svg10.dtd">
<svg version="1.0" xmlns="http://www.w3.org/2000/svg"
 width="260.000000pt" height="260.000000pt" viewBox="0 0 260.000000 260.000000"
 preserveAspectRatio="xMidYMid meet">
<metadata>
Created by potrace 1.11, written by Peter Selinger 2001-2013
</metadata>
<g transform="translate(0.000000,260.000000) scale(0.100000,-0.100000)"
fill="#000000" stroke="none">
<path d="M998 2503 c-9 -21 -57 -148 -108 -283 -50 -135 -103 -274 -117 -310
-14 -36 -50 -129 -79 -207 -74 -195 -132 -349 -344 -908 -223 -588 -248 -655
-246 -656 0 -1 170 -2 377 -3 l377 -1 38 107 39 108 365 0 366 0 39 -107 38
-108 379 0 c208 0 378 1 378 2 0 1 -9 26 -21 55 -12 29 -61 159 -110 288 -48
129 -122 323 -162 430 -109 285 -307 806 -332 875 -51 136 -219 576 -252 662
l-36 93 -287 0 -286 0 -16 -37z m390 -305 c12 -29 62 -161 112 -293 51 -132
122 -321 160 -420 38 -99 110 -288 160 -420 50 -132 122 -321 160 -420 92
-244 89 -220 32 -220 l-47 0 -35 89 -36 90 -579 1 c-319 0 -587 -1 -596 -3 -9
-2 -30 -40 -50 -90 l-34 -87 -43 -1 c-23 -1 -45 2 -47 6 -3 6 222 605 576
1530 70 183 97 255 103 273 4 14 18 17 75 17 l69 0 20 -52z"/>
<path d="M1206 1917 c-49 -127 -108 -281 -131 -342 -24 -60 -106 -276 -183
-480 -77 -203 -144 -378 -147 -387 -7 -17 24 -18 555 -18 446 0 561 3 557 13
-2 6 -109 287 -237 622 -253 663 -274 719 -297 783 -8 23 -18 42 -21 42 -4 0
-47 -105 -96 -233z m132 -715 c19 -48 37 -96 42 -107 16 -36 80 -205 80 -209
0 -2 -72 -4 -160 -4 -88 -1 -160 1 -160 3 0 2 29 77 64 167 34 90 69 180 75
201 7 20 16 37 19 37 4 0 22 -39 40 -88z"/>
</g>
</svg>
